<mxfile host="app.diagrams.net" modified="2024-02-26T08:34:17.548Z" agent="Mozilla/5.0 (Windows NT 10.0; Win64; x64) AppleWebKit/537.36 (KHTML, like Gecko) Chrome/121.0.0.0 Safari/537.36" etag="gfF3yhUh8md6SH5BIdNF" version="23.1.6" type="github">
  <diagram id="R2lEEEUBdFMjLlhIrx00" name="Page-1">
    <mxGraphModel dx="1900" dy="530" grid="1" gridSize="10" guides="1" tooltips="1" connect="1" arrows="1" fold="1" page="1" pageScale="1" pageWidth="850" pageHeight="1100" math="0" shadow="0" extFonts="Permanent Marker^https://fonts.googleapis.com/css?family=Permanent+Marker">
      <root>
        <mxCell id="0" />
        <mxCell id="1" parent="0" />
        <mxCell id="_A3LU-vZx2ufWtQYtixy-1" value="RS_ADMIN" style="shape=umlActor;verticalLabelPosition=bottom;verticalAlign=top;html=1;outlineConnect=0;" vertex="1" parent="1">
          <mxGeometry x="140" y="150" width="30" height="60" as="geometry" />
        </mxCell>
        <mxCell id="_A3LU-vZx2ufWtQYtixy-2" value="RS_ADMIN" style="swimlane;fontStyle=0;childLayout=stackLayout;horizontal=1;startSize=30;horizontalStack=0;resizeParent=1;resizeParentMax=0;resizeLast=0;collapsible=1;marginBottom=0;whiteSpace=wrap;html=1;" vertex="1" parent="1">
          <mxGeometry x="340" y="120" width="140" height="140" as="geometry" />
        </mxCell>
        <mxCell id="_A3LU-vZx2ufWtQYtixy-3" value="PUBLIC" style="text;strokeColor=none;fillColor=none;align=left;verticalAlign=middle;spacingLeft=4;spacingRight=4;overflow=hidden;points=[[0,0.5],[1,0.5]];portConstraint=eastwest;rotatable=0;whiteSpace=wrap;html=1;" vertex="1" parent="_A3LU-vZx2ufWtQYtixy-2">
          <mxGeometry y="30" width="140" height="30" as="geometry" />
        </mxCell>
        <mxCell id="_A3LU-vZx2ufWtQYtixy-4" value="RS_ADMIN_ROLE" style="text;strokeColor=none;fillColor=none;align=left;verticalAlign=middle;spacingLeft=4;spacingRight=4;overflow=hidden;points=[[0,0.5],[1,0.5]];portConstraint=eastwest;rotatable=0;whiteSpace=wrap;html=1;" vertex="1" parent="_A3LU-vZx2ufWtQYtixy-2">
          <mxGeometry y="60" width="140" height="30" as="geometry" />
        </mxCell>
        <mxCell id="_A3LU-vZx2ufWtQYtixy-5" value="RS_GRANTOR_ROLE&lt;br&gt;(Grantable to others)" style="text;strokeColor=none;fillColor=none;align=left;verticalAlign=middle;spacingLeft=4;spacingRight=4;overflow=hidden;points=[[0,0.5],[1,0.5]];portConstraint=eastwest;rotatable=0;whiteSpace=wrap;html=1;fontStyle=1" vertex="1" parent="_A3LU-vZx2ufWtQYtixy-2">
          <mxGeometry y="90" width="140" height="50" as="geometry" />
        </mxCell>
        <mxCell id="_A3LU-vZx2ufWtQYtixy-7" value="" style="shape=flexArrow;endArrow=classic;startArrow=classic;html=1;rounded=0;" edge="1" parent="1">
          <mxGeometry width="100" height="100" relative="1" as="geometry">
            <mxPoint x="180" y="180" as="sourcePoint" />
            <mxPoint x="330" y="180" as="targetPoint" />
          </mxGeometry>
        </mxCell>
        <mxCell id="_A3LU-vZx2ufWtQYtixy-8" value="RS_ADMIN_ROLE" style="swimlane;fontStyle=0;childLayout=stackLayout;horizontal=1;startSize=30;horizontalStack=0;resizeParent=1;resizeParentMax=0;resizeLast=0;collapsible=1;marginBottom=0;whiteSpace=wrap;html=1;" vertex="1" parent="1">
          <mxGeometry x="580" y="220" width="260" height="210" as="geometry" />
        </mxCell>
        <mxCell id="_A3LU-vZx2ufWtQYtixy-9" value="Remote_Subscription_Admin - ERP Schema" style="text;strokeColor=none;fillColor=none;align=left;verticalAlign=middle;spacingLeft=4;spacingRight=4;overflow=hidden;points=[[0,0.5],[1,0.5]];portConstraint=eastwest;rotatable=0;whiteSpace=wrap;html=1;" vertex="1" parent="_A3LU-vZx2ufWtQYtixy-8">
          <mxGeometry y="30" width="260" height="30" as="geometry" />
        </mxCell>
        <mxCell id="_A3LU-vZx2ufWtQYtixy-13" value="Remote_Subscription_Admin - S4H Schema" style="text;strokeColor=none;fillColor=none;align=left;verticalAlign=middle;spacingLeft=4;spacingRight=4;overflow=hidden;points=[[0,0.5],[1,0.5]];portConstraint=eastwest;rotatable=0;whiteSpace=wrap;html=1;" vertex="1" parent="_A3LU-vZx2ufWtQYtixy-8">
          <mxGeometry y="60" width="260" height="30" as="geometry" />
        </mxCell>
        <mxCell id="_A3LU-vZx2ufWtQYtixy-14" value="Remote_Subscription_Admin - R4H Schema" style="text;strokeColor=none;fillColor=none;align=left;verticalAlign=middle;spacingLeft=4;spacingRight=4;overflow=hidden;points=[[0,0.5],[1,0.5]];portConstraint=eastwest;rotatable=0;whiteSpace=wrap;html=1;" vertex="1" parent="_A3LU-vZx2ufWtQYtixy-8">
          <mxGeometry y="90" width="260" height="30" as="geometry" />
        </mxCell>
        <mxCell id="_A3LU-vZx2ufWtQYtixy-16" value="Remote_Subscription_Admin - BW Schema" style="text;strokeColor=none;fillColor=none;align=left;verticalAlign=middle;spacingLeft=4;spacingRight=4;overflow=hidden;points=[[0,0.5],[1,0.5]];portConstraint=eastwest;rotatable=0;whiteSpace=wrap;html=1;" vertex="1" parent="_A3LU-vZx2ufWtQYtixy-8">
          <mxGeometry y="120" width="260" height="30" as="geometry" />
        </mxCell>
        <mxCell id="_A3LU-vZx2ufWtQYtixy-10" value="Remote_Subscription_Admin - SMP Schema" style="text;strokeColor=none;fillColor=none;align=left;verticalAlign=middle;spacingLeft=4;spacingRight=4;overflow=hidden;points=[[0,0.5],[1,0.5]];portConstraint=eastwest;rotatable=0;whiteSpace=wrap;html=1;" vertex="1" parent="_A3LU-vZx2ufWtQYtixy-8">
          <mxGeometry y="150" width="260" height="30" as="geometry" />
        </mxCell>
        <mxCell id="_A3LU-vZx2ufWtQYtixy-15" value="Remote_Subscription_Admin - XLS Schema" style="text;strokeColor=none;fillColor=none;align=left;verticalAlign=middle;spacingLeft=4;spacingRight=4;overflow=hidden;points=[[0,0.5],[1,0.5]];portConstraint=eastwest;rotatable=0;whiteSpace=wrap;html=1;" vertex="1" parent="_A3LU-vZx2ufWtQYtixy-8">
          <mxGeometry y="180" width="260" height="30" as="geometry" />
        </mxCell>
        <mxCell id="_A3LU-vZx2ufWtQYtixy-17" value="" style="edgeStyle=entityRelationEdgeStyle;fontSize=12;html=1;endArrow=ERoneToMany;startArrow=ERmandOne;rounded=0;" edge="1" parent="1" source="_A3LU-vZx2ufWtQYtixy-4">
          <mxGeometry width="100" height="100" relative="1" as="geometry">
            <mxPoint x="480" y="430" as="sourcePoint" />
            <mxPoint x="580" y="330" as="targetPoint" />
          </mxGeometry>
        </mxCell>
        <mxCell id="_A3LU-vZx2ufWtQYtixy-18" value="ROLEMGMT" style="swimlane;" vertex="1" parent="1">
          <mxGeometry x="60" y="400" width="170" height="130" as="geometry" />
        </mxCell>
        <mxCell id="_A3LU-vZx2ufWtQYtixy-20" value="Schema: RoleMGMT&lt;br&gt;&lt;br&gt;&lt;div style=&quot;background-color: rgb(255, 255, 255); font-family: Consolas, &amp;quot;Courier New&amp;quot;, monospace; font-size: 14px; line-height: 19px;&quot;&gt;service-name: &lt;span style=&quot;color: #0000ff;&quot;&gt;rs_grantor_service&lt;/span&gt;&lt;/div&gt;" style="text;strokeColor=none;fillColor=none;align=left;verticalAlign=middle;spacingLeft=4;spacingRight=4;overflow=hidden;points=[[0,0.5],[1,0.5]];portConstraint=eastwest;rotatable=0;whiteSpace=wrap;html=1;" vertex="1" parent="_A3LU-vZx2ufWtQYtixy-18">
          <mxGeometry y="30" width="170" height="80" as="geometry" />
        </mxCell>
        <mxCell id="_A3LU-vZx2ufWtQYtixy-21" value="" style="shape=internalStorage;whiteSpace=wrap;html=1;backgroundOutline=1;" vertex="1" parent="1">
          <mxGeometry x="60" y="530" width="170" height="110" as="geometry" />
        </mxCell>
        <mxCell id="_A3LU-vZx2ufWtQYtixy-22" value="rs_grantor.hdbgrants" style="text;html=1;align=center;verticalAlign=middle;whiteSpace=wrap;rounded=0;" vertex="1" parent="1">
          <mxGeometry x="80" y="530" width="150" height="20" as="geometry" />
        </mxCell>
        <mxCell id="_A3LU-vZx2ufWtQYtixy-24" value="&lt;div style=&quot;border-color: var(--border-color); font-family: Consolas, &amp;quot;Courier New&amp;quot;, monospace; text-align: left; font-size: 7px;&quot;&gt;&lt;font style=&quot;border-color: var(--border-color); font-size: 7px;&quot;&gt;{&lt;/font&gt;&lt;/div&gt;&lt;div style=&quot;border-color: var(--border-color); font-family: Consolas, &amp;quot;Courier New&amp;quot;, monospace; text-align: left; font-size: 7px;&quot;&gt;&lt;font style=&quot;border-color: var(--border-color); font-size: 7px;&quot;&gt;&amp;nbsp; &amp;nbsp; &quot;rs_grantor_service&quot;: {&lt;/font&gt;&lt;/div&gt;&lt;div style=&quot;border-color: var(--border-color); font-family: Consolas, &amp;quot;Courier New&amp;quot;, monospace; text-align: left; font-size: 7px;&quot;&gt;&lt;font style=&quot;border-color: var(--border-color); font-size: 7px;&quot;&gt;&amp;nbsp; &amp;nbsp; &amp;nbsp; &amp;nbsp;&amp;nbsp;&quot;object_owner&quot;&amp;nbsp;: {&lt;/font&gt;&lt;/div&gt;&lt;div style=&quot;border-color: var(--border-color); font-family: Consolas, &amp;quot;Courier New&amp;quot;, monospace; text-align: left; font-size: 7px;&quot;&gt;&lt;font style=&quot;border-color: var(--border-color); font-size: 7px;&quot;&gt;&amp;nbsp; &amp;nbsp; &amp;nbsp; &amp;nbsp; &amp;nbsp; &amp;nbsp;&amp;nbsp;&lt;span style=&quot;border-color: var(--border-color); color: rgb(4, 81, 165); font-size: 7px;&quot;&gt;&quot;roles&quot;&lt;/span&gt;&amp;nbsp;: [&lt;span style=&quot;border-color: var(--border-color); color: rgb(163, 21, 21); font-size: 7px;&quot;&gt;&quot;RS_GRANTOR_ROLE&quot;&lt;/span&gt;]&lt;/font&gt;&lt;/div&gt;&lt;div style=&quot;border-color: var(--border-color); font-family: Consolas, &amp;quot;Courier New&amp;quot;, monospace; text-align: left; font-size: 7px;&quot;&gt;&lt;font style=&quot;border-color: var(--border-color); font-size: 7px;&quot;&gt;&amp;nbsp; &amp;nbsp; &amp;nbsp; &amp;nbsp; },&lt;/font&gt;&lt;/div&gt;&lt;div style=&quot;border-color: var(--border-color); font-family: Consolas, &amp;quot;Courier New&amp;quot;, monospace; text-align: left; font-size: 7px;&quot;&gt;&lt;font style=&quot;border-color: var(--border-color); font-size: 7px;&quot;&gt;&amp;nbsp; &amp;nbsp; &amp;nbsp; &amp;nbsp;&amp;nbsp;&lt;span style=&quot;border-color: var(--border-color); color: rgb(4, 81, 165); font-size: 7px;&quot;&gt;&quot;application_user&quot;&lt;/span&gt;&amp;nbsp;: {&lt;/font&gt;&lt;/div&gt;&lt;div style=&quot;border-color: var(--border-color); font-family: Consolas, &amp;quot;Courier New&amp;quot;, monospace; text-align: left; font-size: 7px;&quot;&gt;&lt;font style=&quot;border-color: var(--border-color); font-size: 7px;&quot;&gt;&amp;nbsp; &amp;nbsp; &amp;nbsp; &amp;nbsp; &amp;nbsp; &amp;nbsp;&amp;nbsp;&lt;span style=&quot;border-color: var(--border-color); color: rgb(4, 81, 165); font-size: 7px;&quot;&gt;&quot;roles&quot;&lt;/span&gt;&amp;nbsp;: [&lt;span style=&quot;border-color: var(--border-color); color: rgb(163, 21, 21); font-size: 7px;&quot;&gt;&quot;RS_GRANTOR_ROLE&quot;&lt;/span&gt;]&lt;/font&gt;&lt;/div&gt;&lt;div style=&quot;border-color: var(--border-color); font-family: Consolas, &amp;quot;Courier New&amp;quot;, monospace; text-align: left; font-size: 7px;&quot;&gt;&lt;font style=&quot;border-color: var(--border-color); font-size: 7px;&quot;&gt;&amp;nbsp; &amp;nbsp; &amp;nbsp; &amp;nbsp; }&lt;/font&gt;&lt;/div&gt;&lt;div style=&quot;border-color: var(--border-color); font-family: Consolas, &amp;quot;Courier New&amp;quot;, monospace; text-align: left; font-size: 7px;&quot;&gt;&lt;font style=&quot;border-color: var(--border-color); font-size: 7px;&quot;&gt;&amp;nbsp; &amp;nbsp; }&lt;/font&gt;&lt;/div&gt;&lt;div style=&quot;border-color: var(--border-color); font-family: Consolas, &amp;quot;Courier New&amp;quot;, monospace; text-align: left; font-size: 7px;&quot;&gt;&lt;font style=&quot;border-color: var(--border-color); font-size: 7px;&quot;&gt;}&lt;/font&gt;&lt;/div&gt;" style="text;html=1;align=center;verticalAlign=middle;whiteSpace=wrap;rounded=0;fontSize=7;" vertex="1" parent="1">
          <mxGeometry x="80" y="550" width="160" height="90" as="geometry" />
        </mxCell>
        <mxCell id="_A3LU-vZx2ufWtQYtixy-25" value="&lt;br&gt;&lt;br&gt;&lt;div style=&quot;&quot;&gt;&lt;span style=&quot;background-color: initial;&quot;&gt;User Provided Service&lt;/span&gt;&lt;/div&gt;rs_grantor_service&lt;br&gt;&lt;div style=&quot;-webkit-tap-highlight-color: rgba(0, 0, 0, 0); text-size-adjust: none; position: relative; display: -webkit-flex; align-items: flex-start; flex-direction: row; box-sizing: border-box; color: rgb(29, 45, 62); font-family: &amp;quot;72&amp;quot;, &amp;quot;72full&amp;quot;, Arial, Helvetica, sans-serif; font-size: 16px;&quot; class=&quot;sapFDynamicPageTitleMain sapFDynamicPageTitleMainNoContent&quot; id=&quot;__title34-main&quot;&gt;&lt;div style=&quot;-webkit-tap-highlight-color: rgba(0, 0, 0, 0); text-size-adjust: none; display: -webkit-flex; align-items: flex-start; flex-grow: 1; width: 1022.66px;&quot; class=&quot;sapFDynamicPageTitleMainInner&quot;&gt;&lt;div style=&quot;-webkit-tap-highlight-color: rgba(0, 0, 0, 0); text-size-adjust: none; cursor: default; display: -webkit-flex; align-items: flex-start; flex-direction: column; justify-content: space-between; min-width: 0px; flex-shrink: 2;&quot; class=&quot;sapFDynamicPageTitleMainHeading&quot; id=&quot;__title34-left-inner&quot;&gt;&lt;div style=&quot;-webkit-tap-highlight-color: rgba(0, 0, 0, 0); text-size-adjust: none; text-overflow: ellipsis; box-sizing: border-box; vertical-align: middle; min-width: 1px; max-width: 100%; margin-top: 0.3125rem;&quot; class=&quot;sapFDynamicPageTitleHeading-CTX sapFDynamicPageTitleMainHeadingInner&quot;&gt;&lt;div style=&quot;-webkit-tap-highlight-color: rgba(0, 0, 0, 0); text-size-adjust: none; background-color: transparent; display: flex; box-sizing: border-box; flex-flow: column; place-content: stretch flex-start; align-items: stretch;&quot; class=&quot;sapMFlexBox sapMVBox sapMFlexBoxJustifyStart sapMFlexBoxAlignItemsStretch sapMFlexBoxWrapNoWrap sapMFlexBoxAlignContentStretch sapMFlexBoxBGTransparent&quot; data-sap-ui-render=&quot;&quot; data-sap-ui=&quot;__vbox314&quot; id=&quot;__vbox314&quot;&gt;&lt;div style=&quot;text-align: left; -webkit-tap-highlight-color: rgba(0, 0, 0, 0); text-size-adjust: none; background-color: transparent; position: relative; align-self: auto; order: 0; flex: 0 1 auto; min-height: auto; min-width: auto;&quot; class=&quot;sapMFlexItemAlignAuto sapMFlexBoxBGTransparent sapMFlexItem&quot; id=&quot;__data1776&quot;&gt;&lt;br&gt;&lt;/div&gt;&lt;/div&gt;&lt;/div&gt;&lt;/div&gt;&lt;div style=&quot;-webkit-tap-highlight-color: rgba(0, 0, 0, 0); text-size-adjust: none; cursor: default; min-width: 0.0625rem; padding: 0px 0px 0px 0.5rem; flex-shrink: 1;&quot; class=&quot;sapFDynamicPageTitleMainContent sapFDynamicPageTitleContent-CTX&quot; id=&quot;__title34-content&quot;&gt;&lt;/div&gt;&lt;div style=&quot;-webkit-tap-highlight-color: rgba(0, 0, 0, 0); text-size-adjust: none; cursor: default; margin-left: auto; min-width: 3rem; flex-grow: 1; padding-left: 0.5rem; flex-shrink: 0.1;&quot; class=&quot;sapFDynamicPageTitleMainActions sapFDynamicPageTitleMainActionsHasContent&quot; id=&quot;__title34-mainActions&quot;&gt;&lt;div style=&quot;-webkit-tap-highlight-color: rgba(0, 0, 0, 0); text-size-adjust: none; overflow: visible; -webkit-box-align: center; align-items: center; box-sizing: border-box; height: 2.75rem; padding: 0px; background: transparent; border-bottom: none; display: flex; justify-content: flex-end;&quot; class=&quot;sapMIBar sapMTBInactive sapMTB sapMTBNewFlex sapMTBClear sapMTB-Auto-CTX sapMOTB sapFDynamicPageTitleActionsBar&quot; data-sap-ui-fastnavgroup=&quot;true&quot; data-sap-ui-render=&quot;&quot; data-sap-ui=&quot;__title34-_actionsToolbar&quot; id=&quot;__title34-_actionsToolbar&quot;&gt;&lt;div style=&quot;-webkit-tap-highlight-color: rgba(0, 0, 0, 0); text-size-adjust: none; background-color: transparent; display: flex; box-sizing: border-box; flex-flow: row; place-content: stretch flex-start; align-items: stretch; flex-shrink: 0; margin-left: 0.25rem;&quot; class=&quot;sapMFlexBox sapMHBox sapMFlexBoxJustifyStart sapMFlexBoxAlignItemsStretch sapMFlexBoxWrapNoWrap sapMFlexBoxAlignContentStretch sapMFlexBoxBGTransparent sapMBarChild&quot; data-sap-ui-render=&quot;&quot; data-sap-ui=&quot;__hbox416&quot; id=&quot;__hbox416&quot;&gt;&lt;div style=&quot;-webkit-tap-highlight-color: rgba(0, 0, 0, 0); text-size-adjust: none; background-color: transparent; position: relative; align-self: auto; order: 0; flex: 0 1 auto; min-height: auto; min-width: auto;&quot; class=&quot;sapMFlexItemAlignAuto sapMFlexBoxBGTransparent sapMFlexItem&quot; id=&quot;__data1778&quot;&gt;&lt;button style=&quot;-webkit-tap-highlight-color: rgba(0, 0, 0, 0); text-size-adjust: none; margin: 0px; height: 2rem; padding: 0.1875rem 0px; vertical-align: top; border-width: initial; border-style: none; border-color: initial; background-color: transparent; position: relative; overflow: visible; cursor: pointer;&quot; class=&quot;sapMBtnBase sapMBtn sapUiTinyMarginEnd&quot; data-ui5-accesskey=&quot;v&quot; data-sap-ui-render=&quot;&quot; data-sap-ui=&quot;__button305&quot; id=&quot;__button305&quot;&gt;&lt;span style=&quot;-webkit-tap-highlight-color: rgba(0, 0, 0, 0); text-size-adjust: none; vertical-align: top; appearance: none; user-select: none; background-clip: padding-box; box-sizing: border-box; font-family: &amp;quot;72-SemiboldDuplex&amp;quot;, &amp;quot;72-SemiboldDuplexfull&amp;quot;, &amp;quot;72&amp;quot;, &amp;quot;72full&amp;quot;, Arial, Helvetica, sans-serif; font-size: 0.875rem; height: 1.625rem; min-width: 2rem; margin: 0px; padding: 0px 0.4375rem; position: relative; background-color: transparent; border: 0.0625rem solid transparent; border-radius: 0.5rem; color: rgb(0, 100, 217); text-shadow: none; display: flex; justify-content: center;&quot; class=&quot;sapMBtnInner sapMBtnHoverable sapMFocusable sapMBtnText sapMBtnDefault&quot; id=&quot;__button305-inner&quot;&gt;&lt;span style=&quot;-webkit-tap-highlight-color: rgba(0, 0, 0, 0); text-size-adjust: none; overflow: hidden; text-overflow: ellipsis; vertical-align: top; line-height: 1.5rem; display: inline-block; flex-shrink: 1;&quot; class=&quot;sapMBtnContent&quot; id=&quot;__button305-content&quot;&gt;&lt;br&gt;&lt;/span&gt;&lt;/span&gt;&lt;/button&gt;&lt;/div&gt;&lt;/div&gt;&lt;/div&gt;&lt;/div&gt;&lt;/div&gt;&lt;/div&gt;" style="shape=display;whiteSpace=wrap;html=1;" vertex="1" parent="1">
          <mxGeometry x="380" y="520" width="170" height="90" as="geometry" />
        </mxCell>
        <mxCell id="_A3LU-vZx2ufWtQYtixy-26" value="{&#xa;  &quot;user&quot;: &quot;RS_ADMIN&quot;,&#xa;  &quot;password&quot;: &quot;******************&quot;,&#xa;  &quot;tags&quot;: [&#xa;    &quot;hana&quot;&#xa;  ],&#xa;  &quot;schema&quot;: &quot;RS_ADMIN&quot;&#xa;}" style="text;whiteSpace=wrap;fillColor=default;strokeColor=#cd4272;dashed=1;" vertex="1" parent="1">
          <mxGeometry x="370" y="610" width="250" height="140" as="geometry" />
        </mxCell>
        <mxCell id="_A3LU-vZx2ufWtQYtixy-31" value="" style="curved=1;endArrow=classic;html=1;rounded=0;entryX=0.047;entryY=0.422;entryDx=0;entryDy=0;entryPerimeter=0;" edge="1" parent="1" target="_A3LU-vZx2ufWtQYtixy-25">
          <mxGeometry width="50" height="50" relative="1" as="geometry">
            <mxPoint x="220" y="490" as="sourcePoint" />
            <mxPoint x="350" y="470" as="targetPoint" />
            <Array as="points">
              <mxPoint x="270" y="490" />
              <mxPoint x="270" y="600" />
              <mxPoint x="330" y="530" />
            </Array>
          </mxGeometry>
        </mxCell>
      </root>
    </mxGraphModel>
  </diagram>
</mxfile>
